<svg xmlns="http://www.w3.org/2000/svg" viewBox="0 0 48.43 48.43" fill="#fff"><path d="M33.93 9.72c-3.74 0-7.15 1.41-9.72 3.74a14.44 14.44 0 0 0-9.72-3.74h-.09a14.5 14.5 0 0 0 .1 28.99c3.73 0 7.14-1.42 9.71-3.75a14.34 14.34 0 0 1-1.48-1.58h3a14.5 14.5 0 0 1-1.48 1.55l-.04.03a14.5 14.5 0 0 0 24.22-10.75c0-8-6.5-14.5-14.5-14.5zM22.9 14.96h2.76c.4.5.78 1.01 1.12 1.55h-4.91c.32-.52.66-1.05 1.03-1.55zM21 18.03h6.61c.23.5.44 1.03.63 1.56h-8.02c.08-.15.36-.76.78-1.55zM5.92 27.91l.88-5.55-1.99 5.55H3.75l-.14-5.55-.94 5.55H1.18l1.24-7.35h2.25l.08 4.5 1.52-4.5h2.44L7.5 27.9H5.92zm5.26-.02l.05-.58c-.02 0-.5.7-1.58.7-.57 0-1.49-.3-1.49-1.66 0-1.72 1.4-2.29 2.74-2.29.2 0 .66.04.66.04s.05-.1.05-.39c0-.46-.42-.53-1-.53-1 0-1.68.27-1.68.27l.23-1.33s.81-.34 1.87-.34c.54 0 2.12.06 2.12 1.86l-.6 4.25h-1.37zm5.75-1.87c0 2.05-2 1.96-2.34 1.96-1.3 0-1.7-.17-1.73-.18l.2-1.35c0-.02.66.23 1.38.23.41 0 .95-.04.95-.54 0-.74-1.93-.56-1.93-2.33 0-1.56 1.16-2.02 2.3-2.02.88 0 1.42.13 1.42.13l-.2 1.36s-.83-.07-1.04-.07c-.55 0-.85.12-.85.5 0 .77 1.84.4 1.84 2.31zm2.38.54c.14 0 .3-.05.4-.05l-.2 1.31c-.15.05-.59.2-1.15.2-.72.01-1.23-.39-1.23-1.3 0-.61.88-5.66.91-5.69h1.54l-.15.9h.77L20 23.4h-.82l-.43 2.67c-.04.22.02.5.56.5zm3.4-4.8c1.69 0 2.2 1.24 2.2 2.26 0 .4-.2 1.4-.2 1.4h-3.14s-.3 1.24 1.36 1.24c.78 0 1.64-.38 1.64-.38l-.27 1.49s-.5.25-1.63.25c-1.23 0-2.67-.52-2.67-2.7 0-1.89 1.15-3.56 2.7-3.56zm4.08 10.13h-5.14c-.31-.5-.6-1.02-.86-1.56h6.85c-.25.54-.54 1.06-.85 1.56zm-.34-3.97h-1.59l.97-5.99h1.43l-.13.87s.5-.94 1.2-.94c.2 0 .3.02.3.02-.2.42-.39.8-.58 1.79-1.07-.38-1.15 1.7-1.6 4.25zm6.03-.1s-.83.22-1.35.22c-1.84 0-2.78-1.27-2.78-3.2 0-2.9 1.74-4.45 3.52-4.45.8 0 1.74.38 1.74.38l-.26 1.63s-.63-.44-1.41-.44c-1.05 0-2 1-2 2.83 0 .9.45 1.73 1.54 1.73a3.7 3.7 0 0 0 1.28-.38l-.28 1.68zm3.72.08l.05-.6c-.03 0-.5.71-1.58.71-.57 0-1.5-.3-1.5-1.66 0-1.72 1.4-2.29 2.74-2.29.21 0 .67.04.67.04s.05-.1.05-.39c0-.46-.42-.53-1-.53-1.01 0-1.68.27-1.68.27l.22-1.33s.82-.34 1.87-.34c.55 0 2.12.06 2.12 1.86l-.6 4.25H36.2zm3.2.02h-1.58l.96-5.99h1.44l-.14.87s.52-.94 1.2-.94c.2 0 .3.02.3.02-.2.42-.38.8-.57 1.79-1.07-.38-1.16 1.7-1.6 4.25zm4.73-.02l.07-.55s-.51.65-1.44.65c-1.28 0-1.91-1.24-1.91-2.5 0-1.97 1.18-3.67 2.6-3.67.9 0 1.48.8 1.48.8l.34-2.06h1.54l-1.18 7.33h-1.5zm3.05-.2a.46.46 0 0 1-.4.23.47.47 0 0 1-.4-.24.46.46 0 0 1 0-.46c.04-.08.1-.14.17-.18a.48.48 0 0 1 .23-.06c.08 0 .15.02.23.06.07.04.13.1.17.18a.46.46 0 0 1 0 .46z"/><path d="M47.06 32.12l-.03-.03h-.18v.14h.1c.05 0 .08 0 .1-.02a.07.07 0 0 0 .02-.05v-.04z"/><path d="M47.38 32.03a.43.43 0 0 0-.17-.18.47.47 0 0 0-.23-.06.47.47 0 0 0-.23.06.43.43 0 0 0-.18.18.47.47 0 0 0 .4.7.47.47 0 0 0 .41-.7zm-.28.49l-.05-.08a.42.42 0 0 0-.08-.12.11.11 0 0 0-.07-.02h-.04v.22h-.09v-.5h.3l.07.06.02.07c0 .04-.01.07-.04.1a.16.16 0 0 1-.1.04.1.1 0 0 1 .04.03l.08.1.06.1h-.1zM11.02 25.21c-1.13 0-1.36.5-1.36.93 0 .22.13.58.6.58.94 0 1.13-1.21 1.1-1.47-.05-.01-.07-.04-.34-.04zM22.71 23.14c-.84 0-1 .96-1 1.06h1.71c0-.07.16-1.06-.7-1.06zM43.7 23.31c-.67 0-1.2.79-1.2 1.99 0 .73.25 1.2.81 1.2.84 0 1.24-1.1 1.24-1.91 0-.9-.29-1.28-.84-1.28zM47.12 27.27a.38.38 0 0 0-.15-.15.38.38 0 0 0-.53.15.4.4 0 0 0-.05.2c0 .06.02.13.05.19a.4.4 0 0 0 .34.2.4.4 0 0 0 .2-.06.39.39 0 0 0 .14-.54zm-.22.45l-.05-.08a.4.4 0 0 0-.08-.12.1.1 0 0 0-.07-.01h-.04v.2h-.09v-.5h.18l.13.02.06.05c.02.02.02.05.02.07 0 .04-.01.07-.04.1-.02.03-.06.04-.1.04l.04.03.08.1.06.1h-.1zM36.04 25.21c-1.13 0-1.36.5-1.36.93 0 .22.12.58.6.58.93 0 1.12-1.21 1.1-1.47-.05-.01-.08-.04-.34-.04z"/><path d="M46.86 27.32a.1.1 0 0 0-.03-.03.28.28 0 0 0-.08 0h-.1v.15h.1l.1-.02a.08.08 0 0 0 .03-.06c0-.02 0-.03-.02-.04z"/></svg>