<svg xmlns="http://www.w3.org/2000/svg" viewBox="0 0 47.83 47.83" fill="#fff"><path d="M19.15 16.8l-2.43 14.27h3.89l2.43-14.27zM13.46 16.82l-3.8 9.72-.41-1.46c-.75-1.77-2.89-4.32-5.39-5.92l3.48 11.9h4.12l6.12-14.25h-4.12z"/><path d="M7.77 17.84c-.22-.87-.88-1.13-1.7-1.16H.06l-.05.28c4.7 1.14 7.8 3.88 9.08 7.18l-1.3-6.3zM30.92 19.53c1.27-.02 2.2.26 2.91.55l.35.17.53-3.1c-.77-.29-1.98-.6-3.48-.6-3.85 0-6.55 1.94-6.57 4.71-.03 2.05 1.92 3.2 3.4 3.88 1.52.7 2.02 1.14 2.02 1.77-.02.95-1.21 1.4-2.33 1.4a8.16 8.16 0 0 1-3.66-.76l-.5-.22-.55 3.19c.91.4 2.6.74 4.33.76 4.1 0 6.75-1.91 6.78-4.88.01-1.62-1.02-2.85-3.27-3.87-1.36-.66-2.2-1.1-2.19-1.77 0-.6.71-1.23 2.23-1.23zM44.69 16.82h-3c-.94 0-1.63.25-2.04 1.18l-5.78 13.07h4.09l.81-2.14h4.98l.48 2.14h3.6L44.7 16.82zM39.89 26l1.55-3.99.52-1.36.26 1.23.9 4.12H39.9z"/></svg>