<svg xmlns="http://www.w3.org/2000/svg" viewBox="0 0 49.89 49.89" fill="#fff"><path d="M45.9 25.93l1.17-1.06 1.06 1.17-1.17 1.06zM43.18 27.24l1.56-1.4 1.4 1.55-1.56 1.4zM48.4 25.21l.79-.7.7.78-.78.7zM43.82 21.1l1.17-1.06 1.06 1.18-1.17 1.05zM47.41 22.87l.78-.7.7.78-.77.7zM5.23 22.24l-.76 3.96h-.05l-1.05-3.96h-.66l-.98 3.96h-.05l-.84-3.96H0l1.21 5.31h.81l.99-3.74h.06l1.01 3.74h.81l1.22-5.31zM42.06 24.53l1.56-1.4 1.4 1.55-1.55 1.4zM40.95 21.86l1.56-1.4 1.4 1.56-1.55 1.4zM44.9 23.46l1.17-1.05 1.05 1.17-1.16 1.05zM46.4 20.56l.78-.7.7.78-.77.7zM34.35 23.84l-.85 2.76h-.04l-.96-2.76h-.82l1.43 3.75c-.18.56-.49.96-1 .96v.61c.86 0 1.32-.54 1.7-1.57l1.35-3.75h-.8zM9.54 25.55c0-1.23-.57-1.83-1.51-1.83-1.12 0-1.7.82-1.7 1.96 0 1.19.52 1.96 1.77 1.96.54 0 1-.15 1.33-.34v-.57a2.3 2.3 0 0 1-1.2.39c-.76 0-1.13-.4-1.13-1.3h2.44v-.27zm-2.42-.23c.08-.75.43-1.1.89-1.1.4 0 .78.31.82 1.1H7.12zM46.94 28.3l1.17-1.06 1.06 1.18-1.18 1.05zM31.44 25.55c0-1.23-.58-1.83-1.51-1.83-1.13 0-1.7.82-1.7 1.96 0 1.19.51 1.96 1.77 1.96.54 0 .99-.15 1.33-.34v-.57a2.3 2.3 0 0 1-1.2.39c-.77 0-1.13-.4-1.13-1.3h2.44v-.27zM29 25.32c.08-.75.44-1.1.9-1.1.4 0 .78.31.82 1.1H29z"/><path d="M46.05 28.57l-1.53 1.41-2.58-2.87.72-.63-1.8-2.02.72-.63-1.83-2.02 2.85-2.58.91 1 1.54-1.37.9.94.6-.54a6.54 6.54 0 0 0-3.29-.88 6.58 6.58 0 0 0-6.56 6.57 6.58 6.58 0 0 0 10.67 5.13l-1.32-1.5zM12.02 23.72c-.4 0-.8.15-1.02.27v-2.13l-.78.19v5.23c.45.24 1.07.36 1.47.36 1.08 0 1.76-.68 1.76-2.08 0-1.2-.5-1.84-1.43-1.84zm-.33 3.4c-.2 0-.45-.02-.7-.12v-2.45c.3-.17.52-.25.82-.25.5 0 .85.3.85 1.26 0 1.21-.42 1.56-.97 1.56zM26.3 23.71c-.87 0-1.58.36-1.92.56v3.28h.78v-2.97c.23-.13.61-.27.91-.27.39 0 .68.1.68.7v2.54h.78v-2.71c0-.77-.34-1.12-1.24-1.13zM18.5 22.24l-1.6 4.19h-.04l-1.68-4.19h-.91v5.31h.68v-3.76h.07l1.52 3.76h.48l1.53-3.85h.07v3.85h.81v-5.31zM21.96 23.72c-.99 0-1.7.65-1.7 1.96 0 1.28.67 1.96 1.7 1.96 1.03 0 1.71-.68 1.71-1.96 0-1.31-.72-1.96-1.7-1.96zm0 3.4c-.53 0-.92-.41-.92-1.44 0-1.01.43-1.44.92-1.44.51 0 .92.43.92 1.44 0 1.03-.39 1.44-.92 1.44z"/></svg>