<svg xmlns="http://www.w3.org/2000/svg" viewBox="0 0 49.08 49.08" fill="#fff"><path d="M49.06 25.3c-.06-.38-.38-.6-.84-.61h-.41c-.28-.03-.35.06-.34.27v3.15c0 .55-.54 1.11-1.18 1.25l-6 1.32c-.23.05-.46.08-.7.08-.1 0-.23-.08-.27-.15-.03-.05.06-.17.13-.23.09-.08.2-.14.32-.18l1.11-.37 4.46-1.48c.67-.22 1.03-.67 1.04-1.23.03-1.83.02-3.65 0-5.48 0-.29-.14-.53-.49-.65-.4-.14-.74-.03-1.08.13l-6.31 3c-.62.3-.97.73-.96 1.34v5.17c0 .08.01.17.04.25.2.59.74.93 1.48.93H47.93c.32 0 .61-.07.85-.27.31-.25.3-.57.3-.88a1693.91 1693.91 0 0 0-.02-5.37zm-6.15-.55c.15-.38.48-.62.97-.69.33-.04.61.17.66.46.07.46-.5.99-1.06.99-.47 0-.73-.33-.57-.76zM7.61 18.09v1.58H6.43v-1.59h-.62V22h.64v-1.75h1.17v1.75h.62v-3.9h-.63zM23.33 28.84c-.18-.92-.89-1.49-2.02-1.58-.44-.04-.9 0-1.37 0v-2.48h-.97v6.88c.72 0 1.4.04 2.09-.02 1.02-.07 1.8-.48 2.16-1.3.2-.49.21-1 .11-1.5zm-1.49 1.05c-.18.76-.96 1.11-1.9.9l.01-2.51c0-.06.1-.15.17-.16.94-.2 1.56.11 1.73.9.06.28.06.58 0 .87zM4.3 15.98H3.28c-.48 0-.87.15-1.2.44-1.12 1-.83 2.88.67 3.28L1.22 22h.54c.21.02.32-.05.42-.2.37-.61.77-1.21 1.16-1.81.18-.28.2-.29.62-.2v2.19h.72v-.34-5.36c0-.3 0-.3-.38-.3zm-.36 3.17c-.49 0-1 .12-1.37-.25-.42-.41-.54-.9-.39-1.42l.06-.13c.31-.72.73-.93 1.7-.8v2.6zM22 21.43c-1.06.35-1.79.03-1.98-.9-.1-.47-.07-.95.1-1.42.24-.64.71-.83 1.5-.62h.05l.25-.31a1.58 1.58 0 0 0-2 .21 2.3 2.3 0 0 0-.57 1.4c-.06.57.02 1.12.4 1.63.4.53 1.08.77 1.8.6.5-.1.55-.16.45-.6zM5.2 30.84v-6.06H1.58c-.05 1.03-.07 2.04-.15 3.05-.07.9-.27 1.78-.67 2.62-.13.28-.29.47-.69.4l-.07.02v2.23h1.08v-1.47H5v1.47h1.05v-2.26H5.2zm-1.17 0H1.66c.2-.51.45-1 .6-1.53.3-1.03.3-2.1.3-3.16v-.51h1.47v5.2zM15.38 21.48c-.18.05-.36.12-.54.16-.51.1-.88-.01-1.08-.34-.22-.37-.21-.78-.2-1.2h1.94a2.53 2.53 0 0 0-.44-1.78c-.36-.48-.97-.55-1.46-.16-.18.14-.33.33-.44.52-.3.53-.42 1.1-.35 1.68.05.36.14.72.3 1.06.22.5.73.75 1.33.69.28-.03.57-.11.84-.2.3-.11.3-.2.1-.43zm-1.5-2.86c.22-.28.58-.27.77.02.22.31.24.66.24 1.02h-1.35c.02-.38.1-.73.34-1.04zM17.16 24.9c-.04-.04-.1-.12-.15-.12h-.99v2.82h-2.07v-2.82h-1.1v6.9h1.11v-.27V29c0-.45 0-.45.53-.45h1.54v3.13h1.12l.01-.2v-6.49c0-.03.02-.06 0-.08zM17.78 19.61l1.13-1.34.15-.2h-.26c-.28-.04-.44.05-.6.25-.32.43-.69.84-1.04 1.26l-.18.18v-1.68h-.62v3.82h.62l.01-1.34c0-.15.08-.3.12-.46.12.08.17.14.21.2l.96 1.44c.04.07.11.15.18.16.18.02.37 0 .6 0l-1.3-1.96c-.08-.12-.09-.2.02-.33zM32.47 24.76c-.18 0-.26.04-.33.18l-1.32 2.85-.59 1.25h-.05v-4.27h-1.12v6.92h1.1l2.1-4.55v4.54h1.26v-6.92h-1.05zM11.31 30.7c-.34.1-.65.22-.97.29-1.06.21-1.75-.08-2.06-.85-.23-.59-.22-1.2-.23-1.84h3.46c-.05-.53-.06-1.06-.15-1.56a3.28 3.28 0 0 0-.88-1.75c-.44-.45-.98-.58-1.65-.4-.7.19-1.12.63-1.41 1.15a5.21 5.21 0 0 0-.27 4.67c.2.48.52.9 1.07 1.16.9.45 2.38.3 3.3-.35a98.5 98.5 0 0 0-.2-.53zm-2.74-4.9c.16-.23.38-.42.75-.4.35.02.56.2.7.45.32.54.38 1.12.37 1.72H8.02c.06-.63.17-1.23.55-1.77zM11.83 21.47v-3.39H9.8v.71c-.03.8-.06 1.6-.4 2.36-.08.19-.14.39-.45.35v1.23h.58v-.8h2.22v.8h.55v-1.24l-.46-.02zm-.64 0H9.8c.6-.92.52-1.92.56-2.9h.82v2.9zM24.37 24.77v6.91h1.02v-6.21h3.11v-.7h-4.13z"/></svg>