<svg xmlns="http://www.w3.org/2000/svg" version="1" viewBox="0 0 453 453" fill="#666">
  <path d="M449 190l-57-38V24c0-4-4-8-8-8H69c-4 0-8 4-8 8v128L3 190c-2 2-3 4-3 7v232c0 4 3 7 7 7h438c4 0 8-3 8-7V197c0-3-1-5-4-7zM61 217l-23-13h23v13zm-46-8l172 92L15 415V209zm211 84l194 128H32l194-128zm39 8l173-92v206L265 301zm127-97h23l-23 13v-13zm28-15h-28v-19l28 19zM377 31v194l-126 66-20-13c-3-2-6-2-9 0l-20 13-126-66V31h301zM61 189H32l29-19v19z"/>
  <path d="M226 214h60a8 8 0 0 0 0-15h-60c-28 0-52-24-52-53v-2a52 52 0 0 1 105 0v6a11 11 0 0 1-23 0v-11a32 32 0 1 0-11 25 26 26 0 0 0 49-14v-6a67 67 0 0 0-135 0v2c0 38 30 68 67 68zm-2-57a17 17 0 1 1 0-35 17 17 0 0 1 0 35z"/>
</svg>
