<svg xmlns="http://www.w3.org/2000/svg" viewBox="0 0 470 470" fill="#666">
  <path d="M462.5 22.5H7.5A7.5 7.5 0 0 0 0 30v410a7.5 7.5 0 0 0 7.5 7.5h455a7.5 7.5 0 0 0 7.5-7.5v-80a7.5 7.5 0 1 0-15 0v72.5H15v-335h440V330a7.5 7.5 0 1 0 15 0V30a7.5 7.5 0 0 0-7.5-7.5zM15 37.5h277.5v45H15v-45zm292.5 45v-45H455v45H307.5z"/>
  <path d="M381.5 52a8 8 0 0 0 0 16 8 8 0 0 0 0-16zM340.5 52a8 8 0 0 0 0 16 8 8 0 0 0 0-16zM422.5 52a8 8 0 0 0 0 16 8 8 0 0 0 0-16zM151.35 147.76l60.4 60.4a7.5 7.5 0 1 0 10.6-10.61l-65.68-65.68a7.5 7.5 0 0 0-10.59-.02l-44.26 43.97a7.5 7.5 0 0 0-.02 10.63l29 29 36.83 36.83a7.48 7.48 0 0 0 10.6 0 7.5 7.5 0 0 0 0-10.6l-2.5-2.5L192.9 222a7.5 7.5 0 1 0-10.6-10.6l-17.17 17.16-18.4-18.4L163.87 193a7.5 7.5 0 1 0-10.6-10.6l-17.16 17.15-18.4-18.38 33.63-33.4zM255.5 340.15l57.98 57.98a7.5 7.5 0 0 0 10.6 0L368.2 354a7.5 7.5 0 0 0 0-10.6l-65.75-65.76a7.5 7.5 0 0 0-10.6 10.6l60.44 60.46-33.5 33.5-18.4-18.37 17.17-17.17a7.5 7.5 0 1 0-10.6-10.6l-17.17 17.16-18.38-18.38 17.16-17.17a7.5 7.5 0 1 0-10.6-10.6l-17.17 17.16-2.47-2.47a7.5 7.5 0 0 0-10.6 10.6l7.77 7.78zM107.66 399.84c1 0 2-.2 2.94-.6l65.63-28.02.13-.06.19-.1c.14-.06.28-.12.42-.2l.24-.14.37-.23.3-.22.29-.21c.19-.16.37-.32.55-.5l162.05-162.05 19.09-19.09a33.92 33.92 0 0 0 9.98-24.14 33.9 33.9 0 0 0-9.98-24.14 33.91 33.91 0 0 0-24.15-9.98c-9.12 0-17.7 3.54-24.14 9.98l-19.07 19.08-162.07 162.06-.5.55-.2.29-.22.3c-.09.12-.16.25-.24.38-.04.07-.1.15-.13.23-.08.14-.15.28-.21.43l-.09.18-.04.1-28.04 65.66a7.5 7.5 0 0 0 6.9 10.44zm190.14-224.7l27.06 27.06-151.45 151.46-27.07-27.07L297.8 175.14zm24.38-24.39a19 19 0 0 1 13.53-5.6 19 19 0 0 1 13.54 5.6 19 19 0 0 1 5.6 13.53 19 19 0 0 1-5.6 13.54l-13.78 13.78-27.07-27.07 13.78-13.78zm-183.9 188.99l21.98 21.98-38.37 16.39 16.39-38.37z"/>
</svg>
