<svg xmlns="http://www.w3.org/2000/svg" viewBox="0 0 512 512" fill="#666">
  <path d="M478.97 0H33.02A33.06 33.06 0 0 0 0 33.02v362.95A33.06 33.06 0 0 0 33.02 429h145.96v26.9h-22.65c-15.1 0-27.4 12.3-27.4 27.4v16.21c0 6.9 5.6 12.5 12.5 12.5h229.12c6.9 0 12.5-5.6 12.5-12.5v-16.2c0-15.12-12.28-27.4-27.4-27.4H333v-26.91h42.55a7.5 7.5 0 1 0 0-15H33.02A18.03 18.03 0 0 1 15 395.97v-28.45h481.98v28.45c0 9.94-8.08 18.02-18.01 18.02h-55.95a7.5 7.5 0 1 0 0 15h55.95a33.05 33.05 0 0 0 33.01-33.02V33.02c0-18.2-14.8-33.02-33.01-33.02zM193.98 428.99H318v26.9H193.98zm131.52 41.9h30.16c6.83 0 12.4 5.57 12.4 12.4V497H143.92v-13.7c0-6.84 5.56-12.4 12.4-12.4zm171.48-118.37H15V33.02C15 23.08 23.08 15 33.02 15h445.95c9.93 0 18.01 8.08 18.01 18.02v319.5zm0 0"/>
  <path d="M389.27 93.79h-10a7.5 7.5 0 1 0 0 15h10a7.5 7.5 0 1 0 0-15zm0 0M469.29 93.79h-10a7.5 7.5 0 0 0 0 15h10a7.5 7.5 0 0 0 0-15zm0 0M429.28 93.79h-10a7.5 7.5 0 1 0 0 15h10a7.5 7.5 0 0 0 0-15zm0 0M429.28 165.7h-10a7.5 7.5 0 1 0 0 15h10a7.5 7.5 0 1 0 0-15zm0 0M389.27 165.7h-10a7.5 7.5 0 1 0 0 15h10a7.5 7.5 0 1 0 0-15zm0 0M469.29 165.7h-10a7.5 7.5 0 1 0 0 15h10a7.5 7.5 0 1 0 0-15zm0 0M50.5 93.79h-10a7.5 7.5 0 1 0 0 15h10a7.5 7.5 0 1 0 0-15zm0 0M90.52 93.79h-10a7.5 7.5 0 1 0 0 15h10a7.5 7.5 0 0 0 0-15zm0 0M130.52 93.79h-10a7.5 7.5 0 0 0 0 15h10a7.5 7.5 0 0 0 0-15zm0 0M50.5 165.7h-10a7.5 7.5 0 1 0 0 15h10a7.5 7.5 0 1 0 0-15zm0 0M90.52 165.7h-10a7.5 7.5 0 1 0 0 15h10a7.5 7.5 0 1 0 0-15zm0 0M130.52 165.7h-10a7.5 7.5 0 1 0 0 15h10a7.5 7.5 0 1 0 0-15zm0 0M348.55 91.67H163.43c-5.79 0-10.5 4.71-10.5 10.5v70.33c0 5.79 4.71 10.5 10.5 10.5h24.01c5.12 0 9.47-3.66 10.35-8.7 3.28-18.94 13.66-22.55 18.27-23.21h9.55v44.57a7.5 7.5 0 1 0 15 0v-49.07c0-5.8-4.7-10.5-10.5-10.5H215.8c-.46 0-.92.02-1.35.08-20.87 2.61-28.23 21.88-30.65 31.83h-15.86v-61.32h176.12V168H328.2c-2.43-9.95-9.79-29.22-30.63-31.83-.45-.05-.91-.08-1.37-.08h-14.33c-5.79 0-10.5 4.7-10.5 10.5v132.3c-.2 3.09-.58 16.7 7.6 25.4 4.39 4.65 10.43 7.08 17.44 6.96h10.88v10.57H204.7v-10.57h10.79c7.12.1 13.15-2.31 17.53-6.96 8.17-8.68 7.81-22.24 7.6-25.4V241a7.5 7.5 0 1 0-15 0v38.04c0 .28.01.53.03.77.2 2.69-.06 10.48-3.55 14.19-.94.99-2.63 2.32-6.51 2.25h-15.39c-5.8 0-10.5 4.71-10.5 10.5v19.57c0 5.8 4.7 10.5 10.5 10.5h111.6c5.8 0 10.5-4.7 10.5-10.5v-19.57c0-5.79-4.7-10.5-10.5-10.5H296.1c-3.65 0-5.29-1.28-6.2-2.25-3.5-3.71-3.75-11.5-3.56-14.15.02-.28.03-.53.03-.8V151.08h9.56c4.59.65 14.98 4.25 18.27 23.21.87 5.04 5.23 8.7 10.34 8.7h24.01c5.79 0 10.5-4.7 10.5-10.5v-70.32c0-5.8-4.71-10.5-10.5-10.5zm0 0M343.25 34.75a7.5 7.5 0 0 0-10.6 10.6l.8.8h-154.9l.79-.8a7.5 7.5 0 0 0-10.61-10.6l-13.6 13.6a7.5 7.5 0 0 0 0 10.6l13.6 13.61a7.5 7.5 0 0 0 10.61-10.6l-.8-.8h154.9l-.8.8a7.5 7.5 0 0 0 10.61 10.6l13.6-13.6a7.5 7.5 0 0 0 0-10.61zm0 0"/>
</svg>
