<svg xmlns="http://www.w3.org/2000/svg" viewBox="-1 0 512 512" fill="#666">
  <path d="M502.7 337.92c4.2 0 7.6-3.4 7.6-7.6v-183.5c0-10.4-4.05-20.2-11.4-27.59a38.82 38.82 0 0 0-27.58-11.39H384.8V7.6c0-4.2-3.4-7.6-7.6-7.6H191.5a7.6 7.6 0 0 0-7.6 7.6v107.82a7.6 7.6 0 1 0 15.2 0V15.2h170.5v92.63h-83.96-.02a38.81 38.81 0 0 0-36.49 25.33 36.55 36.55 0 0 0-5.26-.38H77.55a7.6 7.6 0 1 0 0 15.2h166.32a21.35 21.35 0 0 1 21.33 21.33v306.15a21.35 21.35 0 0 1-21.33 21.33H36.54a21.35 21.35 0 0 1-21.33-21.33V169.32a21.35 21.35 0 0 1 21.33-21.33H52.2a7.6 7.6 0 1 0 0-15.2H36.54A36.57 36.57 0 0 0 0 169.32v306.15A36.57 36.57 0 0 0 36.54 512h207.33a36.57 36.57 0 0 0 36.54-36.53V185.8h29v287.45c0 4.2 3.4 7.6 7.6 7.6H502.7c4.2 0 7.6-3.4 7.6-7.6V355.66a7.6 7.6 0 1 0-15.2 0v109.98H324.6V146.82c0-8.7-2.83-16.98-8.06-23.77h154.77a23.68 23.68 0 0 1 23.77 23.77v183.5c0 4.2 3.41 7.6 7.6 7.6zM302.45 130a23.66 23.66 0 0 1 6.96 16.83v23.77h-29v-1.27c0-12.97-6.81-24.38-17.03-30.86a23.68 23.68 0 0 1 22.26-15.4h.02c6.34 0 12.3 2.47 16.79 6.93zm0 0"/>
  <path d="M250 170.8c0-4.2-3.41-7.6-7.6-7.6H38a7.6 7.6 0 0 0-7.6 7.6V246c0 4.2 3.4 7.6 7.6 7.6H242.4c4.2 0 7.6-3.4 7.6-7.6zm-15.21 67.6H45.62v-60h189.17zm0 0M242.4 270.45H38a7.6 7.6 0 0 0-7.6 7.6v196.76c0 4.2 3.4 7.6 7.6 7.6H242.4c4.2 0 7.6-3.4 7.6-7.6V278.05c0-4.2-3.4-7.6-7.6-7.6zm-7.61 67.24h-51.5v-52.04h51.5zm0 62.27h-51.5V352.9h51.5zM45.62 352.9h51.5v47.07h-51.5zm66.7 0h55.77v47.07h-55.77zm55.77-67.24v52.04h-55.77v-52.04zm-70.98 0v52.04h-51.5v-52.04zm-51.5 129.52h51.5v52.04h-51.5zm66.7 52.04v-52.04h55.78v52.04zm70.98 0v-52.04h51.5v52.04zm0 0M366.96 146.34h-20.28a7.6 7.6 0 1 0 0 15.2h20.28a7.6 7.6 0 0 0 0-15.2zm0 0M473.4 146.34H393.3a7.6 7.6 0 1 0 0 15.2h80.08a7.6 7.6 0 1 0 0-15.2zm0 0M366.96 317.64h-20.28a7.6 7.6 0 0 0 0 15.21h20.28a7.6 7.6 0 0 0 0-15.2zm0 0M481 325.25c0-4.2-3.41-7.6-7.6-7.6H393.3a7.6 7.6 0 0 0 0 15.2h80.08c4.2 0 7.6-3.4 7.6-7.6zm0 0M366.96 274.82h-20.28a7.6 7.6 0 1 0 0 15.2h20.28a7.6 7.6 0 0 0 0-15.2zm0 0M473.4 274.82H393.3a7.6 7.6 0 1 0 0 15.2h80.08a7.6 7.6 0 1 0 0-15.2zm0 0M366.96 232h-20.28a7.6 7.6 0 1 0 0 15.2h20.28a7.6 7.6 0 0 0 0-15.2zm0 0M473.4 232H393.3a7.6 7.6 0 1 0 0 15.2h80.08a7.6 7.6 0 1 0 0-15.2zm0 0M366.96 189.16h-20.28a7.6 7.6 0 1 0 0 15.2h20.28a7.6 7.6 0 0 0 0-15.2zm0 0M473.4 189.16H393.3a7.6 7.6 0 1 0 0 15.2h80.08a7.6 7.6 0 1 0 0-15.2zm0 0M220.98 50.66h20.28a7.6 7.6 0 0 0 0-15.21h-20.28a7.6 7.6 0 1 0 0 15.2zm0 0M267.61 50.66h80.09a7.6 7.6 0 0 0 0-15.21H267.6a7.6 7.6 0 0 0 0 15.2zm0 0M220.98 93.48h20.28a7.6 7.6 0 0 0 0-15.2h-20.28a7.6 7.6 0 1 0 0 15.2zm0 0M267.61 93.48h80.09a7.6 7.6 0 0 0 0-15.2H267.6a7.6 7.6 0 0 0 0 15.2zm0 0M410.08 445.25a4.41 4.41 0 0 0 3.02 1.13h.18a5.23 5.23 0 0 0 5.22-5.22v-1.1c11.86-2.54 18.66-10.75 18.66-22.55 0-13.36-8.95-18.7-18.66-22.45v-18.73a21.7 21.7 0 0 1 6.92 2.42c1.46.73 2.62 1.32 3.9 1.32 4.13 0 5.92-5.05 5.92-7.62 0-5.5-8.6-8.04-16.74-8.6v-1.13a5.23 5.23 0 0 0-10.44 0v1.46c-12.43 2.08-19.56 9.68-19.56 20.87 0 13.75 11.25 18.07 19.56 21.2v21.02c-4.58-.87-7.56-3.18-9.97-5.05-1.96-1.52-3.5-2.73-5.28-2.73-3.56 0-6.23 4.69-6.23 7.73 0 5.74 8.81 12.62 21.48 13.41v.52c0 1.62.74 3.12 2.02 4.1zm-2.02-68.3v14.14c-3.17-1.46-6.03-3.41-6.03-7.43 0-3.22 2.09-5.54 6.03-6.7zm10.44 49.63v-15.9c3.54 2.1 5.13 4.65 5.13 8.21 0 3.6-1.77 6.25-5.13 7.69zm0 0"/>
  <path d="M202.23 229.46h16.22a7.6 7.6 0 0 0 0-15.21h-16.22a7.6 7.6 0 0 0 0 15.2zm0 0"/>
</svg>
