<svg xmlns="http://www.w3.org/2000/svg" viewBox="0 0 512 512" fill="#666">
  <path d="M231.15 447.3a7.5 7.5 0 0 0-7.5 7.5v8.28a7.5 7.5 0 0 0 15 0v-8.28a7.5 7.5 0 0 0-7.5-7.5zM280.85 447.3a7.5 7.5 0 0 0-7.5 7.5v8.28a7.5 7.5 0 0 0 15 0v-8.28a7.5 7.5 0 0 0-7.5-7.5zM272.57 20.7a7.5 7.5 0 0 0-7.5 7.5v13.21h-18.14v-13.2a7.5 7.5 0 1 0-15 0v41.42a7.5 7.5 0 1 0 15 0V56.41h18.14v13.2a7.5 7.5 0 1 0 15 0V28.22a7.5 7.5 0 0 0-7.5-7.5z"/>
  <path d="M487.93 248.5h-91.9V123.47a7.5 7.5 0 0 0-7.5-7.5h-.78V97.83h9.07a7.5 7.5 0 0 0 7.5-7.5V57.2a7.5 7.5 0 0 0-7.5-7.5h-91.9V7.5a7.5 7.5 0 0 0-7.5-7.5h-82.84a7.5 7.5 0 0 0-7.5 7.5v42.2h-91.9a7.5 7.5 0 0 0-7.5 7.5v33.13a7.5 7.5 0 0 0 7.5 7.5h9.07v18.14h-.78a7.5 7.5 0 0 0-7.5 7.5v66.26a7.5 7.5 0 1 0 15 0v-58.76h250.06V497h-26.41v-18.14h4.92a7.5 7.5 0 0 0 7.5-7.5v-49.7a7.5 7.5 0 0 0-7.5-7.5H334.7a7.5 7.5 0 0 0-7.5 7.5v49.7a7.5 7.5 0 0 0 7.5 7.5h4.93V497H313.2v-84.4h9.07a7.5 7.5 0 0 0 7.5-7.5v-33.13a7.5 7.5 0 0 0-7.5-7.5H189.74a7.5 7.5 0 0 0-7.5 7.5v33.13a7.5 7.5 0 0 0 7.5 7.5h9.06V497h-26.42v-18.14h4.93a7.5 7.5 0 0 0 7.5-7.5v-49.7a7.5 7.5 0 0 0-7.5-7.5h-24.85a7.5 7.5 0 0 0-7.5 7.5v49.7a7.5 7.5 0 0 0 7.5 7.5h4.92V497h-26.41V219.7a7.5 7.5 0 1 0-15 0v28.8h-91.9a7.5 7.5 0 0 0-7.5 7.5v165.66a7.5 7.5 0 0 0 7.5 7.5h9.06v75.34a7.5 7.5 0 0 0 7.5 7.5h430.74a7.5 7.5 0 0 0 7.5-7.5v-75.33h9.06a7.5 7.5 0 0 0 7.5-7.5V256a7.5 7.5 0 0 0-7.5-7.5zM115.97 497H48.13v-67.83h67.84V497zm0-82.83h-84.4V263.5h84.4v150.67zm53.84 49.7h-9.85v-34.7h9.85v34.7zM248.24 497H213.8v-84.4h34.44V497zm49.96 0h-34.96v-84.4h34.96V497zm-91.9-99.4h-9.07v-18.13h117.54v18.13H206.3zm145.74 66.26h-9.85v-34.7h9.85v34.7zM222.08 15h67.84V82.83h-67.84V15zm-90.33 67.83H122.68V64.7h84.4v18.13h-75.3-.03zm241 33.14h-233.5V97.83H372.75v18.14zm7.54-33.14H304.9V64.7h84.4v18.13h-9.02zM463.87 497h-67.84v-67.83h67.84V497zm16.56-82.83h-84.4V263.5h84.4v150.67z"/>
  <path d="M90.33 281.63H57.2a7.5 7.5 0 0 0-7.5 7.5v33.14a7.5 7.5 0 0 0 7.5 7.5h33.13a7.5 7.5 0 0 0 7.5-7.5v-33.14a7.5 7.5 0 0 0-7.5-7.5zm-7.5 33.14H64.7v-18.14h18.13v18.14zM189.73 281.63H156.6a7.5 7.5 0 0 0-7.5 7.5v33.14a7.5 7.5 0 0 0 7.5 7.5h33.13a7.5 7.5 0 0 0 7.5-7.5v-33.14a7.5 7.5 0 0 0-7.5-7.5zm-7.5 33.14H164.1v-18.14h18.13v18.14zM355.4 281.63h-33.13a7.5 7.5 0 0 0-7.5 7.5v33.14a7.5 7.5 0 0 0 7.5 7.5h33.13a7.5 7.5 0 0 0 7.5-7.5v-33.14a7.5 7.5 0 0 0-7.5-7.5zm-7.5 33.14h-18.13v-18.14h18.13v18.14zM272.3 281.63h-33.12a7.5 7.5 0 0 0-7.5 7.5v33.14a7.5 7.5 0 0 0 7.5 7.5h33.13a7.5 7.5 0 0 0 7.5-7.5v-33.14a7.5 7.5 0 0 0-7.5-7.5zm-7.5 33.14h-18.12v-18.14h18.13v18.14zM189.73 215.37H156.6a7.5 7.5 0 0 0-7.5 7.5V256a7.5 7.5 0 0 0 7.5 7.5h33.13a7.5 7.5 0 0 0 7.5-7.5v-33.13a7.5 7.5 0 0 0-7.5-7.5zm-7.5 33.13H164.1v-18.14h18.13v18.14zM355.4 215.37h-33.13a7.5 7.5 0 0 0-7.5 7.5V256a7.5 7.5 0 0 0 7.5 7.5h33.13a7.5 7.5 0 0 0 7.5-7.5v-33.13a7.5 7.5 0 0 0-7.5-7.5zm-7.5 33.13h-18.13v-18.14h18.13v18.14zM272.3 215.37h-33.12a7.5 7.5 0 0 0-7.5 7.5V256a7.5 7.5 0 0 0 7.5 7.5h33.13a7.5 7.5 0 0 0 7.5-7.5v-33.13a7.5 7.5 0 0 0-7.5-7.5zm-7.5 33.13h-18.12v-18.14h18.13v18.14zM189.73 149.1H156.6a7.5 7.5 0 0 0-7.5 7.5v33.13a7.5 7.5 0 0 0 7.5 7.5h33.13a7.5 7.5 0 0 0 7.5-7.5V156.6a7.5 7.5 0 0 0-7.5-7.5zm-7.5 33.13H164.1V164.1h18.13v18.13zM355.4 149.1h-33.13a7.5 7.5 0 0 0-7.5 7.5v33.13a7.5 7.5 0 0 0 7.5 7.5h33.13a7.5 7.5 0 0 0 7.5-7.5V156.6a7.5 7.5 0 0 0-7.5-7.5zm-7.5 33.13h-18.13V164.1h18.13v18.13zM272.3 149.1h-33.12a7.5 7.5 0 0 0-7.5 7.5v33.13a7.5 7.5 0 0 0 7.5 7.5h33.13a7.5 7.5 0 0 0 7.5-7.5V156.6a7.5 7.5 0 0 0-7.5-7.5zm-7.5 33.13h-18.12V164.1h18.13v18.13zM454.8 281.63h-33.13a7.5 7.5 0 0 0-7.5 7.5v33.14a7.5 7.5 0 0 0 7.5 7.5h33.13a7.5 7.5 0 0 0 7.5-7.5v-33.14a7.5 7.5 0 0 0-7.5-7.5zm-7.5 33.14h-18.13v-18.14h18.13v18.14zM90.33 347.9H57.2a7.5 7.5 0 0 0-7.5 7.5v33.13a7.5 7.5 0 0 0 7.5 7.5h33.13a7.5 7.5 0 0 0 7.5-7.5V355.4a7.5 7.5 0 0 0-7.5-7.5zm-7.5 33.13H64.7V362.9h18.13v18.13zM454.8 347.9h-33.13a7.5 7.5 0 0 0-7.5 7.5v33.13a7.5 7.5 0 0 0 7.5 7.5h33.13a7.5 7.5 0 0 0 7.5-7.5V355.4a7.5 7.5 0 0 0-7.5-7.5zm-7.5 33.13h-18.13V362.9h18.13v18.13z"/>
</svg>
