<svg xmlns="http://www.w3.org/2000/svg" viewBox="0 -35 512 512" fill="#666">
  <path d="M111.2 334.16a53.5 53.5 0 0 0-53.45 53.45c0 29.47 23.98 53.45 53.45 53.45s53.45-23.98 53.45-53.45a53.5 53.5 0 0 0-53.45-53.45zm0 91.7a38.29 38.29 0 0 1-38.24-38.25c0-21.08 17.16-38.24 38.24-38.24s38.24 17.16 38.24 38.24a38.28 38.28 0 0 1-38.24 38.24zm0 0"/>
  <path d="M111.2 360.31a27.33 27.33 0 0 0-27.3 27.3 27.33 27.33 0 0 0 27.3 27.3 27.34 27.34 0 0 0 27.3-27.3 27.34 27.34 0 0 0-27.3-27.3zm0 39.4a12.1 12.1 0 0 1 0-24.19 12.1 12.1 0 0 1 0 24.18zm0 0"/>
  <path d="M511.49 219.73l-34.43-89.27a54.74 54.74 0 0 0-50.76-34.82H292.9a7.6 7.6 0 0 0-7.6 7.6v174.43h-16.17V138.98v-.12-59.31c0-4.2-3.4-7.6-7.6-7.6H244.7a43.38 43.38 0 0 0 10.54-28.38A43.62 43.62 0 0 0 211.68 0a43.62 43.62 0 0 0-43.58 43.57v6.61a35.82 35.82 0 0 0-20.8-6.63 35.81 35.81 0 0 0-20.79 6.63v-6.6C126.51 19.54 106.96 0 82.94 0S39.36 19.55 39.36 43.57A43.36 43.36 0 0 0 49.9 71.94H33.1a7.6 7.6 0 0 0-7.61 7.6v198.13H7.61a7.6 7.6 0 0 0-7.61 7.6v102.34c0 4.2 3.4 7.6 7.6 7.6h28.2c4.2 0 7.6-3.4 7.6-7.6 0-37.39 30.41-67.8 67.8-67.8a67.88 67.88 0 0 1 67.8 67.8c0 4.2 3.41 7.6 7.6 7.6h135.1c4.2 0 7.6-3.4 7.6-7.6 0-37.39 30.42-67.8 67.8-67.8a67.28 67.28 0 0 1 40.13 13.14 7.6 7.6 0 1 0 9.01-12.25 82.36 82.36 0 0 0-49.13-16.1c-43.22 0-78.82 33.18-82.67 75.4h-13.93V110.85H426.3a39.44 39.44 0 0 1 36.57 25.1l33.92 87.94V380h-17a82.31 82.31 0 0 0-15.09-40.6 7.6 7.6 0 0 0-12.37 8.84 67.33 67.33 0 0 1 12.58 39.36c0 4.2 3.41 7.6 7.61 7.6h31.87c4.2 0 7.61-3.4 7.61-7.6V222.46c0-.93-.17-1.86-.51-2.73zM183.3 146.47h70.62v131.2H183.3zm70.62-15.21H183.3V87.15h70.62zM183.3 43.57c0-15.64 12.73-28.36 28.37-28.36s28.36 12.72 28.36 28.36-12.72 28.37-28.36 28.37H183.3zm-36 15.18c8.78 0 16.29 5.48 19.33 13.2h-38.67a20.82 20.82 0 0 1 19.34-13.2zM54.57 43.57c0-15.64 12.73-28.36 28.37-28.36s28.36 12.72 28.36 28.36v28.37H82.94a28.4 28.4 0 0 1-28.37-28.37zm56.73 43.58v44.1H40.7v-44.1zM40.7 146.47h70.61v41.01a7.6 7.6 0 1 0 15.22 0V87.15h41.58v190.52h-41.58v-64.03a7.6 7.6 0 1 0-15.22 0v64.03H40.7zM111.2 304.6c-43.2 0-78.82 33.18-82.66 75.4H15.2v-87.12h270.1V380h-91.44c-3.85-42.23-39.46-75.41-82.67-75.41zm0 0"/>
  <path d="M477.04 226.77a7.6 7.6 0 0 0 .83-7.04l-30.08-77.97a23.19 23.19 0 0 0-21.5-14.75h-102a7.6 7.6 0 0 0-7.6 7.6v87.86c0 4.2 3.4 7.6 7.6 7.6h146.48a7.6 7.6 0 0 0 6.27-3.3zm-145.15-11.9V142.2h94.4a7.9 7.9 0 0 1 7.31 5.02l26.1 67.63zm0 0M397.1 334.16a53.5 53.5 0 0 0-53.44 53.45c0 29.47 23.98 53.45 53.45 53.45s53.45-23.98 53.45-53.45a53.5 53.5 0 0 0-53.45-53.45zm0 91.7a38.28 38.28 0 0 1-38.23-38.25c0-21.08 17.15-38.24 38.24-38.24s38.24 17.16 38.24 38.24a38.29 38.29 0 0 1-38.24 38.24zm0 0"/>
  <path d="M397.1 360.31a27.33 27.33 0 0 0-27.3 27.3c0 15.06 12.25 27.3 27.3 27.3s27.31-12.25 27.31-27.3a27.33 27.33 0 0 0-27.3-27.3zm0 39.4a12.1 12.1 0 0 1 0-24.18c6.68-.01 12.1 5.42 12.1 12.08s-5.42 12.1-12.1 12.1zm0 0M263.89 315.5h-53.34a7.6 7.6 0 1 0 0 15.21h53.34a7.6 7.6 0 0 0 0-15.2zm0 0M263.89 342.17h-53.34a7.6 7.6 0 1 0 0 15.2h53.34a7.6 7.6 0 0 0 0-15.2zm0 0M324.29 244.72a7.6 7.6 0 1 0 0 15.21h32.15a7.6 7.6 0 1 0 0-15.2zm0 0"/>
</svg>
