<svg xmlns="http://www.w3.org/2000/svg" viewBox="0 0 97.39 97.39" fill="#fff"><path d="M12.5 0h72.4c6.87 0 12.5 5.09 12.5 12.5v72.4c0 7.4-5.63 12.5-12.5 12.5H12.5C5.62 97.4 0 92.3 0 84.9V12.5C0 5.09 5.62 0 12.5 0zm58.45 10.82a4.4 4.4 0 0 0-4.39 4.39v10.5a4.4 4.4 0 0 0 4.39 4.38h11a4.4 4.4 0 0 0 4.4-4.39V15.2a4.4 4.4 0 0 0-4.4-4.38h-11zM86.39 41.2h-8.57a28.49 28.49 0 0 1 1.25 8.35c0 16.2-13.56 29.34-30.28 29.34S18.52 65.73 18.52 49.53c0-2.9.44-5.7 1.25-8.35h-8.95v41.14a3.88 3.88 0 0 0 3.88 3.87h67.82a3.88 3.88 0 0 0 3.87-3.87V41.19zm-37.6-11.66c-10.8 0-19.56 8.49-19.56 18.96 0 10.46 8.76 18.95 19.56 18.95 10.8 0 19.56-8.49 19.56-18.95 0-10.47-8.76-18.96-19.56-18.96z"/></svg>