<svg xmlns="http://www.w3.org/2000/svg" viewBox="0 0 548.36 548.36" fill="#fff"><path d="M545.45 400.3a37.56 37.56 0 0 0-1.86-3.57c-9.51-17.14-27.7-38.17-54.53-63.1l-.57-.57-.28-.28-.29-.3h-.28c-12.18-11.6-19.9-19.4-23.13-23.4-5.9-7.62-7.23-15.33-4-23.14 2.28-5.9 10.85-18.36 25.7-37.4 7.8-10.08 13.98-18.17 18.55-24.26 32.93-43.78 47.2-71.76 42.83-83.94l-1.7-2.85c-1.15-1.71-4.1-3.28-8.85-4.7-4.76-1.43-10.85-1.67-18.28-.72l-82.22.57c-1.33-.47-3.23-.43-5.71.14l-3.72.86-1.43.72-1.13.86c-.95.56-2 1.56-3.14 2.99a19.6 19.6 0 0 0-2.85 5A466.2 466.2 0 0 1 388 207.44a608.2 608.2 0 0 1-19.41 30.7c-5.9 8.66-10.85 15.03-14.85 19.12-4 4.1-7.6 7.38-10.85 9.85-3.23 2.48-5.7 3.53-7.42 3.14-1.71-.38-3.33-.76-4.86-1.14a18.99 18.99 0 0 1-6.42-7c-1.62-2.94-2.71-6.66-3.28-11.13-.57-4.48-.9-8.33-1-11.56-.09-3.24-.05-7.8.14-13.7.2-5.91.3-9.9.3-12 0-7.23.13-15.08.41-23.55.3-8.47.53-15.19.72-20.13.2-4.95.28-10.18.28-15.7s-.33-9.85-1-13a44.44 44.44 0 0 0-2.99-9.13 15.39 15.39 0 0 0-5.85-6.85 33 33 0 0 0-9.56-3.86c-10.1-2.28-22.94-3.52-38.55-3.71-35.4-.38-58.15 1.9-68.24 6.85-4 2.1-7.6 4.95-10.84 8.57-3.43 4.19-3.9 6.47-1.43 6.85 11.42 1.7 19.5 5.8 24.26 12.27l1.72 3.43c1.33 2.48 2.66 6.86 4 13.14a132.5 132.5 0 0 1 2.56 20.83c.95 13.9.95 25.8 0 35.7-.95 9.9-1.85 17.6-2.7 23.12-.87 5.52-2.15 10-3.86 13.42-1.72 3.42-2.86 5.52-3.43 6.28a4.91 4.91 0 0 1-1.43 1.42 21.39 21.39 0 0 1-7.7 1.43c-2.67 0-5.9-1.33-9.71-4-3.8-2.66-7.76-6.32-11.85-10.99-4.1-4.66-8.7-11.18-13.85-19.56a341.27 341.27 0 0 1-15.99-29.69l-4.56-8.28a712.22 712.22 0 0 1-11.7-23.27 448.65 448.65 0 0 1-13.14-29.55c-1.52-4-3.8-7.04-6.85-9.13l-1.43-.86a19.54 19.54 0 0 0-4.57-2.43 30.3 30.3 0 0 0-6.57-1.85l-78.22.56c-8 0-13.42 1.82-16.28 5.43L.86 139.2c-.57.96-.86 2.48-.86 4.57 0 2.1.57 4.67 1.71 7.71a942.23 942.23 0 0 0 37.26 77.66c13.42 24.93 25.08 45.02 34.97 60.24a711.3 711.3 0 0 0 30.27 43.1c10.28 13.52 17.08 22.18 20.41 25.99 3.33 3.81 5.95 6.66 7.85 8.56l7.14 6.86c4.57 4.56 11.28 10.04 20.13 16.41a343.34 343.34 0 0 0 29.4 18.85c10.76 6.18 23.28 11.23 37.55 15.13 14.28 3.9 28.17 5.47 41.69 4.71h32.83c6.66-.57 11.7-2.67 15.14-6.28l1.13-1.43c.77-1.14 1.48-2.9 2.14-5.28a29 29 0 0 0 1-7.85c-.2-8.18.43-15.56 1.85-22.12 1.43-6.57 3.05-11.51 4.86-14.85a36.5 36.5 0 0 1 6.14-8.42c2.28-2.28 3.9-3.66 4.86-4.14.95-.48 1.7-.8 2.28-1 4.56-1.52 9.94-.05 16.13 4.43a94.77 94.77 0 0 1 17.42 16.56 507.28 507.28 0 0 0 19.55 22.13C401.33 408.9 408 415 413.7 419l5.7 3.43c3.82 2.28 8.77 4.38 14.86 6.28 6.08 1.9 11.4 2.38 15.98 1.43l73.1-1.14c7.22 0 12.85-1.2 16.84-3.58 4-2.37 6.37-5 7.13-7.85.77-2.85.8-6.09.15-9.7-.68-3.62-1.35-6.14-2-7.57z"/></svg>