<svg viewBox="-1 0 512 512" xmlns="http://www.w3.org/2000/svg" fill="#666"><path d="M335 383.2v-45.7a7.5 7.5 0 1 0-15 0v45.2h-15.8V162.5H320v129a7.5 7.5 0 1 0 15 0V257v-78.3-22.1c-.1-5.4-3.6-8.6-7-12.9l-25-32.3a231117 231117 0 0 0-37.8-48.7c-2.4-3-6-4.8-9.8-4.8-3.8 0-7.3 1.8-9.7 4.8a94806 94806 0 0 1-51.5 66.3l-10.6 13.6c-2.5 3.3-7.7 8.4-7.7 12.5v44a7.5 7.5 0 1 0 15 0v-36.5h15.7v220.2H191V245.5a7.5 7.5 0 1 0-15 0v137.7a17.2 17.2 0 0 0-13.4 16.7v35.6c0 9.5 7.7 17.2 17.2 17.2h8v15a44.3 44.3 0 0 0 44.2 44.3h47a44.3 44.3 0 0 0 44.3-44.3v-15h8c9.5 0 17.2-7.7 17.2-17.2V400c0-8.2-5.8-15-13.4-16.7zm-58.9-282h-41.3l20.6-26.7zm-77.4 46.3l24.4-31.4h64.7l24.3 31.4zm90.5 15v220.2h-11.9V162.5zm-26.9 0v220.2h-13.8V162.5zm-28.8 0v220.2h-11.8V162.5zm74.7 305.2A29.3 29.3 0 0 1 279 497h-47a29.3 29.3 0 0 1-29.3-29.3v-15h105.5zm25.2-32.2c0 1.2-1 2.2-2.2 2.2H179.7c-1.2 0-2.2-1-2.2-2.2V400c0-1.2 1-2.2 2.2-2.2h151.5c1.2 0 2.2 1 2.2 2.2zm0 0"/><path d="M497.5 60c7.4 0 13.5-6 13.5-13.5v-33C511 6.1 505 0 497.5 0h-33C457 0 451 6 451 13.5v9H284a453.6 453.6 0 0 0-59.2 0H60v-9C60 6.1 54 0 46.5 0h-33C6.1 0 0 6 0 13.5v33C0 53.9 6 60 13.5 60h9v142.5a162 162 0 0 0 0 4.4V266h-9C6.1 266 0 272.1 0 279.6v33C0 320 6 326 13.5 326h33c7.4 0 13.5-6.1 13.5-13.5v-33c0-7.5-6-13.6-13.5-13.6h-9v-62.2c.5-30 9.7-58.5 26.8-82.5C93.7 80.2 140 51.8 194.8 41.4c10-1.9 20.2-3.2 30.5-3.9h58.1c28.7 2 53.5 7.4 76 16.3a194.8 194.8 0 0 1 87.2 67.5 144.9 144.9 0 0 1 26.9 85.6V266h-9c-7.5 0-13.5 6.1-13.5 13.6v33c0 7.4 6 13.5 13.5 13.5h33c7.4 0 13.5-6.1 13.5-13.5v-33c0-7.5-6-13.6-13.5-13.6h-9V60zM45 281v30H15v-30zM15 45V15h30v30zm37.1 67.6a158 158 0 0 0-14.6 25V60h9C53.9 60 60 54 60 46.5v-9h92.7a212.4 212.4 0 0 0-100.6 75zm406.7 0a209.7 209.7 0 0 0-100.3-75.1H451v9c0 7.4 6 13.5 13.5 13.5h9v77.7c-4.1-8.7-9-17.2-14.7-25.1zM496 281v30h-30v-30zM466 45V15h30v30zm0 0"/></svg>
