<svg xmlns="http://www.w3.org/2000/svg" viewBox="0 0 470 470" fill="#666"><path d="M429.6 418.38l-62.23-150.22a7.5 7.5 0 1 0-13.86 5.74l56.25 135.8-51.3-14.87a7.5 7.5 0 0 0-8.66 3.59l-25.77 46.8-60.36-145.72c69.66-13.44 122.45-74.86 122.45-148.38C386.12 67.79 318.32 0 235 0S83.88 67.8 83.88 151.12c0 33.75 11.12 64.95 29.9 90.13L40.4 418.38a7.5 7.5 0 0 0 9.02 10.07l60.53-17.54 30.4 55.2a7.5 7.5 0 0 0 13.5-.74l58.13-140.35a7.5 7.5 0 1 0-13.85-5.74L145.97 445.2l-25.77-46.79a7.5 7.5 0 0 0-8.65-3.59L60.24 409.7l64.4-155.47a150.72 150.72 0 0 0 123.68 47.41l67.82 163.73a7.5 7.5 0 0 0 13.5.75l30.4-55.2 60.53 17.53a7.5 7.5 0 0 0 9.02-10.07zM98.87 151.12C98.88 76.06 159.94 15 235 15s136.12 61.06 136.12 136.12S310.06 287.24 235 287.24 98.88 226.17 98.88 151.12z"/><path d="M321.66 122.96a7.5 7.5 0 0 0-5.9-5.08l-50.46-8.47-23.65-45.38a7.5 7.5 0 0 0-13.3 0l-23.65 45.38-50.47 8.47a7.5 7.5 0 0 0-4.1 12.65l35.84 36.52-7.54 50.61a7.5 7.5 0 0 0 10.76 7.82L235 202.67l45.8 22.81a7.5 7.5 0 0 0 10.77-7.82l-7.54-50.61 35.85-36.52a7.5 7.5 0 0 0 1.78-7.57zm-50.95 36.25a7.5 7.5 0 0 0-2.07 6.35l5.97 40.08-36.27-18.06a7.5 7.5 0 0 0-6.68 0l-36.27 18.06 5.97-40.08a7.5 7.5 0 0 0-2.07-6.36l-28.38-28.9 39.96-6.71a7.5 7.5 0 0 0 5.4-3.93L235 83.73l18.73 35.93a7.5 7.5 0 0 0 5.4 3.93l39.96 6.7-28.38 28.91z"/><path d="M348.61 158.68a7.5 7.5 0 0 0-8.42 6.45c-6.95 52.51-52.18 92.1-105.19 92.1-58.51 0-106.12-47.6-106.12-106.11S176.48 45 235 45c53.01 0 98.23 39.6 105.2 92.1a7.5 7.5 0 1 0 14.86-1.97C347.12 75.2 295.51 30 235 30c-66.78 0-121.12 54.33-121.12 121.12S168.22 272.24 235 272.24c60.5 0 112.12-45.2 120.06-105.14a7.5 7.5 0 0 0-6.45-8.42z"/></svg>
