<svg viewBox="0 -57 512 512" xmlns="http://www.w3.org/2000/svg" fill="#666"><path d="M499.48 43.09c6.9 0 12.52-5.63 12.52-12.53V12.52C512 5.62 506.38 0 499.48 0h-19.04c-6.71 0-12.19 5.3-12.5 11.94H278.02A12.53 12.53 0 0 0 265.52 0h-19.04c-6.7 0-12.18 5.3-12.5 11.94H44.06A12.53 12.53 0 0 0 31.56 0H12.52C5.62 0 0 5.62 0 12.52v18.04c0 6.9 5.62 12.53 12.52 12.53h1.5v125.15h-1.5c-6.9 0-12.52 5.62-12.52 12.53v18.03c0 6.9 5.62 12.53 12.52 12.53h1.5v142.93h-1.5C5.62 354.26 0 359.88 0 366.8v18.03c0 6.9 5.62 12.52 12.52 12.52h19.04c6.9 0 12.53-5.61 12.53-12.52v-3.6h189.87v3.6c0 6.9 5.61 12.52 12.52 12.52h19.04c6.9 0 12.52-5.61 12.52-12.52v-3.6h189.87v3.6c0 6.9 5.62 12.52 12.53 12.52h19.04c6.9 0 12.52-5.61 12.52-12.52v-18.03c0-6.91-5.62-12.53-12.52-12.53h-2.51V211.33h2.5c6.91 0 12.53-5.62 12.53-12.53v-18.03c0-6.91-5.62-12.53-12.52-12.53h-2.51V43.1zm-16.54-28.06h14.03v13.02h-14.03zm-233.96 0h14.04v13.02h-14.04zm-233.95 0h14.03v13.02H15.03zm0 181.27v-13.03h14.03v13.03zm14.03 186.02H15.03v-13.03h14.03zm233.96 0h-14.04v-13.03h14.04zm233.95 0h-14.03v-13.03h14.03zm0-186.02h-14.03v-13.03h14.03zm-15.03-28.06h-1.5c-6.9 0-12.53 5.62-12.53 12.53v18.03c0 6.9 5.62 12.53 12.53 12.53h1.5v142.93h-1.5c-6.71 0-12.19 5.3-12.5 11.94H278.02a12.52 12.52 0 0 0-12.49-11.94h-19.04c-6.7 0-12.18 5.3-12.5 11.94H44.06a12.52 12.52 0 0 0-12.49-11.94h-2.5V211.33h2.5c6.9 0 12.53-5.62 12.53-12.53v-18.03c0-6.91-5.62-12.53-12.53-12.53h-2.5V43.1h2.5c6.9 0 12.53-5.63 12.53-12.53v-3.6h189.87v3.6c0 6.9 5.61 12.53 12.52 12.53h19.04c6.9 0 12.52-5.63 12.52-12.53v-3.6h189.87v3.6c0 6.9 5.62 12.53 12.53 12.53h1.5zm0 0"/><path d="M431.25 58.45H161.82a7.51 7.51 0 1 0 0 15.03h269.43a4.83 4.83 0 0 1 4.83 4.83v178.74l-24.05-27.1a7.52 7.52 0 1 0-11.24 9.97l35.29 39.77v39.34a4.83 4.83 0 0 1-4.83 4.83H80.12a4.83 4.83 0 0 1-4.82-4.83V282.5l.37-.34 132-131.94 89.46 100.8a7.5 7.5 0 1 0 11.24-9.97l-13.43-15.13 49.52-49.5 26.47 29.61a7.52 7.52 0 0 0 11.2-10.02l-28.2-31.54a12.57 12.57 0 0 0-9-4.2 12.6 12.6 0 0 0-9.23 3.65l-50.75 50.73-67.8-76.4a12.5 12.5 0 0 0-18.22-.54L75.3 261.28V78.3a4.83 4.83 0 0 1 4.82-4.83h35.27a7.51 7.51 0 1 0 0-15.03H80.12a19.88 19.88 0 0 0-19.85 19.86v240.72c0 10.95 8.9 19.86 19.85 19.86h351.13a19.88 19.88 0 0 0 19.86-19.86V78.31c0-10.95-8.9-19.86-19.86-19.86zm0 0"/><path d="M374.18 154.54a35.43 35.43 0 0 0 35.39-35.4 35.43 35.43 0 0 0-35.39-35.38 35.43 35.43 0 0 0-35.39 35.38 35.43 35.43 0 0 0 35.4 35.4zm0-55.75a20.38 20.38 0 0 1 20.36 20.35 20.38 20.38 0 0 1-20.36 20.36 20.38 20.38 0 0 1-20.36-20.36 20.38 20.38 0 0 1 20.36-20.35zm0 0"/></svg>
