<svg xmlns="http://www.w3.org/2000/svg" viewBox="0 0 480 480" fill="#666"><path d="M412 16h-24V8a8 8 0 0 0-16 0v8h-16V8a8 8 0 0 0-16 0v8h-16V8a8 8 0 0 0-16 0v8h-16V8a8 8 0 0 0-16 0v8H164V8a8 8 0 0 0-16 0v8h-16V8a8 8 0 0 0-16 0v8h-16V8a8 8 0 0 0-16 0v8H68V8a8 8 0 0 0-16 0v8H28a8 8 0 0 0-8 8v376a8 8 0 0 0 8 8h232.4a8 8 0 0 0 8-8.56l-.06-.93A79.92 79.92 0 0 1 268 392c.03-7.92.96-15.8 2.78-23.51a102.2 102.2 0 0 1 7.93-22.17c.35-.7.66-1.42 1.02-2.11 1.06-2.03 2.21-4 3.4-5.96.38-.62.75-1.25 1.14-1.86 1.3-2.03 2.66-4.01 4.1-5.94l.9-1.22c1.6-2.09 3.26-4.12 4.99-6.08l.24-.26a105.42 105.42 0 0 1 41.84-28.49l1.41-.52c2.16-.76 4.35-1.43 6.57-2.06 1-.28 2.02-.53 3.03-.8 1.87-.46 3.75-.9 5.66-1.25 1.6-.3 3.26-.52 4.9-.75 1.45-.2 2.88-.44 4.35-.57 3.2-.3 6.45-.5 9.74-.5 2.17 0 4.3.17 6.4.31l1 .08h.2a104.5 104.5 0 0 1 29.5 6.6 8 8 0 0 0 10.9-7.45V24a8 8 0 0 0-8-8zM268.43 331.7c-.28.46-.57.9-.83 1.35-1.15 2.02-2.2 4.11-3.2 6.2-.57 1.16-1.14 2.3-1.67 3.48-.87 1.93-1.69 3.9-2.46 5.88l-.25.58V312h22.81a120.83 120.83 0 0 0-14.4 19.7zM308 290.67c-2.75 1.75-5.4 3.6-8 5.55V296h-40v-48h48v42.67zm0-58.67h-48v-48h48v48zm0-64h-48v-48h48v48zm64 16v48h-48v-48h48zm-48-16v-48h48v48h-48zm48.02 104c-3.75 0-7.44.22-11.1.56-1.6.14-3.1.4-4.66.6-1.96.26-3.9.53-5.84.89a115.67 115.67 0 0 0-9.7 2.23c-2.4.66-4.8 1.37-7.2 2.17-.31.11-.6.23-.91.33-2.91 1.02-5.8 2.08-8.6 3.3V248h48v24zm31.98 4.42a118.88 118.88 0 0 0-16-3.32V112a8 8 0 0 0-8-8H60a8 8 0 0 0-8 8v256a8 8 0 0 0 8 8h193.2c-.76 5.3-1.16 10.65-1.2 16H36V88h368v188.42zM196 296v-48h48v48h-48zm48 16v48h-48v-48h48zm-48-80v-48h48v48h-48zm0-64v-48h48v48h-48zm-64 128v-48h48v48h-48zm48 16v48h-48v-48h48zm-48-80v-48h48v48h-48zm0-64v-48h48v48h-48zM68 296v-48h48v48H68zm48 16v48H68v-48h48zm-48-80v-48h48v48H68zm0-64v-48h48v48H68zm336-96H36V32h16v8a8 8 0 0 0 16 0v-8h16v8a8 8 0 0 0 16 0v-8h16v8a8 8 0 0 0 16 0v-8h16v8a8 8 0 0 0 16 0v-8h112v8a8 8 0 0 0 16 0v-8h16v8a8 8 0 0 0 16 0v-8h16v8a8 8 0 0 0 16 0v-8h16v8a8 8 0 0 0 16 0v-8h16v40z"/><path d="M372 304a88 88 0 1 0 88 88 88.1 88.1 0 0 0-88-88zm0 160a72 72 0 1 1 72-72 72.08 72.08 0 0 1-72 72z"/><path d="M417.46 346.34a8 8 0 0 0-11.12 0L372 380.7l-18.34-18.35a8 8 0 0 0-11.32 11.32l24 24a8 8 0 0 0 11.32 0l40-40a8 8 0 0 0-.2-11.32z"/></svg>
