<svg viewBox="0 -45 512 512" xmlns="http://www.w3.org/2000/svg" fill="#666"><path d="M123.14 342.48a7.5 7.5 0 0 0 7.5-7.5v-25.94a7.5 7.5 0 0 0-7.5-7.5H86.49a7.5 7.5 0 0 0-7.5 7.5v25.94a7.5 7.5 0 0 0 7.5 7.5zm-29.15-25.94h21.65v10.94H93.99zm0 0M86.5 214.35h36.64a7.5 7.5 0 0 0 7.5-7.5v-25.94a7.5 7.5 0 0 0-7.5-7.5H86.49a7.5 7.5 0 0 0-7.5 7.5v25.94a7.5 7.5 0 0 0 7.5 7.5zm7.5-25.94h21.64v10.94H93.99zm0 0"/><path d="M504.5 297.9a7.5 7.5 0 0 0 7.5-7.5v-77.84c0-9.56-7.78-17.34-17.34-17.34h-8.25V79.6a17.37 17.37 0 0 0 13.86-16.99V51.8c0-9.56-7.78-17.34-17.34-17.34H299.88a17.36 17.36 0 0 0-17.34 17.34V62.6c0 9.57 7.78 17.34 17.34 17.34h4.17l-44.9 120.6a20.47 20.47 0 0 0-14.95 19.69v73.72c-5.03.1-9.77 1.4-13.95 3.61v-128.4a25.91 25.91 0 0 0 21.6-25.51V48.18a25.91 25.91 0 0 0-21.6-25.52v-5.32C230.25 7.78 222.47 0 212.9 0h-15.47a17.36 17.36 0 0 0-17.34 17.34v85.06a7.5 7.5 0 1 0 15 0V17.34c0-1.29 1.05-2.34 2.34-2.34h15.47a2.34 2.34 0 0 1 2.34 2.34v174.3H195.1v-56.58a7.5 7.5 0 1 0-15 0v218.63h-25.63c.1-.8.19-1.6.19-2.42v-108.3c0-3.68-1.16-7.1-3.12-9.91a17.31 17.31 0 0 0 3.12-9.91v-108.3c0-9.6-7.81-17.42-17.41-17.42H28.95c-9.6 0-17.41 7.81-17.41 17.41v108.3c0 3.69 1.15 7.1 3.1 9.92a17.31 17.31 0 0 0-3.1 9.9v52.44a7.5 7.5 0 1 0 15 0v-52.43a2.4 2.4 0 0 1 2.4-2.4h27.42v30.97a7.5 7.5 0 0 0 7.5 7.5h38.48a7.5 7.5 0 0 0 7.5-7.5v-30.98h27.4a2.4 2.4 0 0 1 2.42 2.4v108.31a2.41 2.41 0 0 1-2.41 2.41H28.95a2.41 2.41 0 0 1-2.41-2.4v-23.22a7.5 7.5 0 1 0-15 0v23.21a17 17 0 0 0 .18 2.42H7.5a7.5 7.5 0 1 0 0 15h183.13a47.76 47.76 0 0 0 47.44 52.77 47.8 47.8 0 0 0 46.38-36.53H396.9a47.8 47.8 0 0 0 46.38 36.53 47.79 47.79 0 0 0 46.37-36.53h5c9.56 0 17.34-7.77 17.34-17.34v-44.53a7.5 7.5 0 1 0-15 0v44.53a2.34 2.34 0 0 1-2.34 2.34h-3.83a47.76 47.76 0 0 0-47.54-43.9 47.77 47.77 0 0 0-47.55 43.9h-13.02l-17.49-28.4a7.5 7.5 0 0 0-6.39-3.58h-49.2a7.5 7.5 0 0 0-7.5 7.5v24.48h-16.52a47.77 47.77 0 0 0-56.97-42.96v-1.87c0-8.9 7.25-16.15 16.16-16.15H374.5c4.63 0 8.98-1.8 12.26-5.08l93.65-93.65h14.25a2.34 2.34 0 0 1 2.34 2.34v77.84a7.5 7.5 0 0 0 7.5 7.5zM71.36 112.43h23.48v23.48H71.36zm-44.82 2.41a2.41 2.41 0 0 1 2.4-2.4h27.42v30.97a7.5 7.5 0 0 0 7.5 7.5h38.48a7.5 7.5 0 0 0 7.5-7.5v-30.98h27.41c1.33 0 2.4 1.09 2.4 2.41v108.3a2.41 2.41 0 0 1-2.4 2.42H28.95a2.41 2.41 0 0 1-2.41-2.41zm68.3 149.2H71.36v-23.48h23.48zm348.45 77a32.75 32.75 0 0 1 32.7 32.7 32.75 32.75 0 0 1-32.7 32.72 32.75 32.75 0 0 1-32.72-32.71 32.75 32.75 0 0 1 32.72-32.71zm-126.15 11.91h37.52l10.45 16.98h-47.97zM236.86 48.18v95.48a10.9 10.9 0 0 1-6.61 10V38.18a10.9 10.9 0 0 1 6.6 10zm-21.61 158.46v42.05H195.1v-42.05zm55.53 167.1a32.75 32.75 0 0 1-32.71 32.72 32.75 32.75 0 0 1-32.71-32.71 32.75 32.75 0 0 1 32.71-32.71 32.75 32.75 0 0 1 32.71 32.7zm-74.6-22.82h-1.08V263.7h20.15v51.58a31 31 0 0 0-1.6 9.83v7.68a48.1 48.1 0 0 0-17.47 18.14zm101.36-288.3V51.78c0-1.3 1.05-2.34 2.34-2.34h183.05a2.34 2.34 0 0 1 2.34 2.34V62.6a2.34 2.34 0 0 1-2.34 2.34H299.88a2.34 2.34 0 0 1-2.34-2.34zM471.4 79.94V198l-13.73 13.73v-69.5c0-18.19-14.8-32.99-33-32.99s-32.98 14.8-32.98 32.99v98.25a6.38 6.38 0 0 1-6.38 6.38h-80.5a6.39 6.39 0 0 1-6.38-6.38v-17.14l13.6-13.6 1.72 1.74a7.48 7.48 0 0 0 10.6 0 7.5 7.5 0 0 0 0-10.6l-1.72-1.74 1.73-1.73a7.5 7.5 0 1 0-10.6-10.6l-1.73 1.73-1.74-1.73a7.5 7.5 0 1 0-10.6 10.6l1.73 1.73-7.87 7.87a20.4 20.4 0 0 0-15.57-7.22h-2.54l44.61-119.83h151.35zm-71.66 189.71H259.2v-49.42c0-3 2.43-5.44 5.43-5.45H277.98c3.01 0 5.46 2.44 5.46 5.44v20.25a21.4 21.4 0 0 0 21.38 21.38h80.5a21.4 21.4 0 0 0 21.38-21.38v-98.25c0-9.92 8.07-17.99 17.98-17.99 9.93 0 18 8.07 18 17.99v28.03h-5.1a7.5 7.5 0 1 0 0 15h5.1v3.14h-5.1a7.5 7.5 0 1 0 0 15h5.1v22.83c0 .16 0 .32.02.48zm-25.25 24.29H259.2v-9.29h125.55l-8.6 8.6c-.44.44-1.04.69-1.65.69zm0 0"/><path d="M238.07 396.57a22.85 22.85 0 0 0 22.82-22.82 22.85 22.85 0 0 0-22.82-22.83 22.85 22.85 0 0 0-22.82 22.83 22.85 22.85 0 0 0 22.82 22.82zm0-30.65a7.84 7.84 0 0 1 0 15.65 7.84 7.84 0 0 1 0-15.65zm0 0M443.29 396.57a22.85 22.85 0 0 0 22.82-22.82 22.85 22.85 0 0 0-22.82-22.83 22.85 22.85 0 0 0-22.83 22.83 22.85 22.85 0 0 0 22.83 22.82zm0-30.65a7.83 7.83 0 0 1 0 15.65 7.84 7.84 0 0 1 0-15.65zm0 0M472.32 250.89l-8.55 8.55a7.5 7.5 0 0 0 10.6 10.6l8.56-8.55a7.5 7.5 0 0 0-10.61-10.6zm0 0"/></svg>
