<svg xmlns="http://www.w3.org/2000/svg" viewBox="0 0 512 512" fill="#666"><path d="M429.6 73.08H25.66A25.69 25.69 0 0 0 0 98.74v202.18a25.69 25.69 0 0 0 25.66 25.65h15.48a7.29 7.29 0 1 0 0-14.57H25.66a11.1 11.1 0 0 1-11.09-11.08V98.74a11.1 11.1 0 0 1 11.09-11.09H429.6a11.1 11.1 0 0 1 11.08 11.09v70.82a7.29 7.29 0 0 0 14.57 0V98.74a25.69 25.69 0 0 0-25.65-25.66z"/><path d="M426.46 128.05A49.82 49.82 0 0 1 400.68 102a13.53 13.53 0 0 0-12.46-8.18H67.04A13.53 13.53 0 0 0 54.58 102a49.82 49.82 0 0 1-25.79 26.05 13.54 13.54 0 0 0-8.05 12.4V259.2c0 5.39 3.16 10.25 8.05 12.4a49.89 49.89 0 0 1 8.12 4.54 7.28 7.28 0 0 0 8.25-12.01c-3.1-2.14-6.42-4.01-9.85-5.57V141.1a64.33 64.33 0 0 0 32.38-32.7h319.88a64.34 64.34 0 0 0 32.37 32.7v28.53a7.29 7.29 0 1 0 14.57 0v-29.17c0-5.38-3.15-10.25-8.05-12.4z"/><path d="M302.62 166.9a81.95 81.95 0 0 0-75-48.96 81.96 81.96 0 0 0-74.96 48.9 7.29 7.29 0 0 0 13.33 5.87 67.38 67.38 0 0 1 61.64-40.2c26.7 0 50.9 15.8 61.65 40.25a7.29 7.29 0 1 0 13.34-5.87z"/><path d="M486.34 185.43H232.51v-18.6c9.42.68 12.92 4.98 16.15 4.98 4.03 0 5.91-5.11 5.91-7.67 0-6.59-12.91-9.41-22.06-9.68v-3.63c0-1.62-2.01-3.1-4.03-3.1-2.29 0-3.9 1.48-3.9 3.1v3.9c-12.78 1.34-25.56 8.07-25.56 25.02 0 2.07.2 3.95.56 5.68H82.4a25.69 25.69 0 0 0-25.66 25.65v202.18a25.69 25.69 0 0 0 25.66 25.66h403.94A25.69 25.69 0 0 0 512 413.26V211.09a25.69 25.69 0 0 0-25.66-25.66zM225.38 167.1v18.33h-10.54a10.51 10.51 0 0 1-2.37-7.03c0-7 5.38-10.35 12.91-11.3zm260.96 257.25H82.4a11.1 11.1 0 0 1-11.08-11.09V211.09a11.1 11.1 0 0 1 11.08-11.1h403.94a11.1 11.1 0 0 1 11.09 11.1v202.17a11.1 11.1 0 0 1-11.09 11.09z"/><path d="M483.21 240.4a49.82 49.82 0 0 1-25.79-26.06 13.53 13.53 0 0 0-12.46-8.18H123.78a13.53 13.53 0 0 0-12.46 8.18 49.82 49.82 0 0 1-25.78 26.05 13.54 13.54 0 0 0-8.05 12.4v118.76c0 5.38 3.16 10.25 8.05 12.4A49.82 49.82 0 0 1 111.32 410a13.53 13.53 0 0 0 12.46 8.18h321.18c5.44 0 10.33-3.21 12.46-8.18a49.82 49.82 0 0 1 25.79-26.05 13.54 13.54 0 0 0 8.05-12.4V252.8c0-5.39-3.16-10.25-8.05-12.4zm-6.52 130.5a64.33 64.33 0 0 0-32.38 32.7H124.43a64.33 64.33 0 0 0-32.37-32.7V253.45a64.33 64.33 0 0 0 32.37-32.7h319.88a64.33 64.33 0 0 0 32.38 32.7V370.9z"/><path d="M284.37 230.28c-45.15 0-81.89 36.74-81.89 81.9s36.74 81.88 81.9 81.88c45.15 0 81.88-36.73 81.88-81.89 0-45.15-36.73-81.89-81.89-81.89zm0 149.2a67.4 67.4 0 0 1-67.31-67.3c0-37.13 30.2-67.32 67.31-67.32s67.32 30.2 67.32 67.31-30.2 67.32-67.32 67.32z"/><path d="M289.08 303.43v-27.3c9.42.66 12.91 4.97 16.14 4.97 4.04 0 5.92-5.11 5.92-7.67 0-6.59-12.91-9.42-22.06-9.68v-3.64c0-1.61-2.02-3.09-4.04-3.09-2.28 0-3.9 1.48-3.9 3.1v3.9c-12.78 1.34-25.56 8.07-25.56 25.02 0 17.21 13.46 22.06 25.56 26.36v31.61c-13.72-1.08-17.35-10.5-21.79-10.5-3.36 0-6.19 4.45-6.19 7.68 0 6.59 11.3 15.6 27.98 15.87v4.17c0 1.61 1.62 3.1 3.9 3.1 2.02 0 4.04-1.49 4.04-3.1v-4.57c14.53-2.02 24.48-11.17 24.48-27.71 0-18.3-12.78-24.22-24.48-28.52zm-7.13-2.56c-7.13-2.69-12.91-5.51-12.91-13.18 0-7 5.38-10.36 12.91-11.3v24.48zm6.32 45.87v-28.38c6.6 2.82 11.84 6.59 11.84 15.07 0 7.66-4.57 11.97-11.84 13.31z"/></svg>
